Coordinates
version=1
nRows=60
nColumns=12
inDegrees=yes

Units are S.I. units (second, meters, Newtons, ...)
Angles are in degrees

endheader
time	SC_y	SC_z	SC_x	AC_y	AC_z	AC_x	GH_y	GH_z	GH_yy	EL_x	PS_y
       0.0              -53.58          14.27          3.148          47.96          -3.14         -8.251          2.796         -16.59           34.5          104.5          104.6
    0.0238              -53.57          14.27          3.157          47.96          -3.14         -8.252          2.816         -16.59           34.5          104.4          104.6
    0.0476              -53.57          14.27          3.167          47.95          -3.14         -8.252          2.838         -16.59           34.5          104.4          104.6
    0.0714              -53.57          14.27          3.177          47.95         -3.139         -8.253          2.861         -16.59          34.49          104.4          104.6
   0.09519              -53.56          14.26          3.188          47.95         -3.139         -8.254          2.886         -16.59          34.49          104.4          104.6
     0.119              -53.56          14.26            3.2          47.95         -3.138         -8.255          2.913         -16.59          34.49          104.4          104.6
    0.1428              -53.55          14.26          3.212          47.95         -3.137         -8.255          2.941         -16.59          34.48          104.4          104.6
    0.1666              -53.55          14.26          3.225          47.94         -3.137         -8.256          2.971         -16.59          34.48          104.4          104.6
    0.1904              -53.54          14.26           3.24          47.94         -3.136         -8.257          3.003         -16.59          34.47          104.4          104.6
    0.2142              -53.54          14.25          3.255          47.94         -3.135         -8.258          3.038         -16.59          34.47          104.4          104.6
     0.238              -53.53          14.25          3.271          47.94         -3.135         -8.259          3.075         -16.59          34.46          104.3          104.6
    0.2618              -53.52          14.25          3.289          47.93         -3.134          -8.26          3.115         -16.59          34.46          104.3          104.6
    0.2856              -53.52          14.25          3.308          47.93         -3.133         -8.262          3.158         -16.59          34.45          104.3          104.6
    0.3094              -53.51          14.24          3.329          47.93         -3.132         -8.263          3.205         -16.59          34.45          104.3          104.6
    0.3332               -53.5          14.24          3.351          47.92         -3.131         -8.265          3.255         -16.59          34.44          104.3          104.6
     0.357              -53.49          14.24          3.375          47.92          -3.13         -8.266           3.31         -16.59          34.43          104.2          104.6
    0.3808              -53.48          14.23          3.401          47.91         -3.129         -8.268          3.369         -16.59          34.43          104.2          104.6
    0.4046              -53.47          14.23           3.43          47.91         -3.127          -8.27          3.434         -16.59          34.42          104.2          104.6
    0.4284              -53.46          14.22          3.461           47.9         -3.126         -8.272          3.504         -16.59          34.41          104.2          104.6
    0.4522              -53.44          14.22          3.495           47.9         -3.124         -8.274          3.582          -16.6           34.4          104.1          104.6
     0.476              -53.43          14.21          3.533          47.89         -3.123         -8.276          3.667          -16.6          34.39          104.1          104.6
    0.4998              -53.41          14.21          3.574          47.88         -3.121         -8.279           3.76          -16.6          34.37          104.1          104.6
    0.5236               -53.4           14.2           3.62          47.88         -3.119         -8.282          3.864          -16.6          34.36          104.0          104.6
    0.5474              -53.38          14.19           3.67          47.87         -3.116         -8.286          3.978          -16.6          34.34          104.0          104.6
    0.5712              -53.35          14.18          3.726          47.86         -3.114         -8.289          4.105          -16.6          34.33          103.9          104.6
     0.595              -53.33          14.17          3.789          47.85         -3.111         -8.293          4.247          -16.6          34.31          103.9          104.6
    0.6188               -53.3          14.16          3.859          47.84         -3.108         -8.298          4.406          -16.6          34.29          103.8          104.6
    0.6426              -53.27          14.15          3.938          47.82         -3.104         -8.303          4.585          -16.6          34.26          103.7          104.6
    0.6664              -53.24          14.14          4.027          47.81           -3.1         -8.309          4.787          -16.6          34.24          103.6          104.6
    0.6902               -53.2          14.12          4.128          47.79         -3.095         -8.316          5.017          -16.6          34.21          103.6          104.6
     0.714              -53.15          14.11          4.244          47.77          -3.09         -8.323          5.279          -16.6          34.17          103.4          104.6
    0.7378               -53.1          14.09          4.377          47.75         -3.084         -8.332          5.579          -16.6          34.13          103.3          104.6
    0.7616              -53.04          14.07           4.53          47.72         -3.077         -8.342          5.926          -16.6          34.08          103.2          104.6
    0.7854              -52.97          14.04          4.708          47.69         -3.068         -8.354          6.329          -16.6          34.03          103.0          104.6
    0.8092              -52.89          14.01          4.916          47.66         -3.059         -8.368          6.801          -16.6          33.97          102.8          104.6
     0.833               -52.8          13.97          5.162          47.62         -3.047         -8.384          7.358         -16.61          33.89          102.6          104.6
    0.8568              -52.69          13.93          5.454          47.57         -3.034         -8.403          8.019         -16.61           33.8          102.3          104.6
    0.8806              -52.55          13.88          5.803          47.51         -3.018         -8.426          8.811         -16.61           33.7          102.0          104.6
    0.9044              -52.39          13.81          6.226          47.44         -2.998         -8.454          9.769         -16.61          33.57          101.6          104.6
    0.9281              -52.19          13.74          6.743          47.35         -2.974         -8.488          10.94         -16.62          33.41          101.2          104.6
    0.9519              -51.94          13.64          7.381          47.24         -2.945          -8.53          12.39         -16.62          33.22          100.6          104.7
    0.9757              -51.63          13.53          8.177          47.11         -2.908         -8.583          14.19         -16.63          32.98          99.84          104.7
    0.9995              -51.24          13.38          9.179          46.94         -2.862         -8.649          16.46         -16.63          32.67          98.92          104.7
     1.023              -50.75          13.19          10.45          46.72         -2.803         -8.733          19.34         -16.64          32.29          97.75          104.7
     1.047              -50.12          12.95          12.08          46.44         -2.728          -8.84          23.04         -16.65          31.79          96.26          104.7
     1.071              -49.31          12.64          14.18          46.09         -2.631         -8.978          27.78         -16.66          31.16          94.34          104.8
     1.095              -48.27          12.24          16.85          45.64         -2.507         -9.154          33.83         -16.68          30.35          91.88          104.8
     1.119              -46.97          11.75          20.21          45.07         -2.352         -9.376          41.45          -16.7          29.33           88.8          104.9
     1.142              -45.38          11.14           24.3          44.37         -2.163         -9.646          50.73         -16.73          28.09          85.04          105.0
     1.166              -43.54          10.44          29.05          43.57         -1.943         -9.959          61.48         -16.76          26.65          80.69          105.0
      1.19              -41.55          9.681          34.19           42.7         -1.706          -10.3          73.13         -16.79          25.09          75.97          105.1
     1.214              -39.56          8.922          39.33          41.83         -1.468         -10.64          84.77         -16.82          23.53          71.26          105.2
     1.238              -37.72           8.22          44.08          41.03         -1.249         -10.95          95.53         -16.85          22.09           66.9          105.3
     1.261              -36.13          7.615          48.17          40.33          -1.06         -11.22          104.8         -16.88          20.85          63.15          105.4
     1.285              -34.83          7.118          51.54          39.76        -0.9045         -11.44          112.4          -16.9          19.83          60.06          105.4
     1.309              -33.79          6.723          54.21          39.31         -0.781         -11.62          118.5         -16.92          19.02          57.61          105.5
     1.333              -32.98          6.414           56.3          38.96        -0.6843         -11.75          123.2         -16.93          18.39          55.69          105.5
     1.357              -32.35          6.173          57.93          38.68         -0.609         -11.86          126.9         -16.94          17.89           54.2          105.6
      1.38              -31.86          5.985          59.21          38.46        -0.5501         -11.95          129.8         -16.95          17.51          53.03          105.6
     1.404              -31.47          5.836          60.21          38.29        -0.5038         -12.01          132.1         -16.96           17.2          52.11          105.6
